<?xml version="1.0" encoding="UTF-8" standalone="no"?><!DOCTYPE svg PUBLIC "-//W3C//DTD SVG 1.1//EN" "http://www.w3.org/Graphics/SVG/1.1/DTD/svg11.dtd"><svg width="100%" height="100%" viewBox="0 0 1179 927" version="1.1" xmlns="http://www.w3.org/2000/svg" xmlns:xlink="http://www.w3.org/1999/xlink" xml:space="preserve" xmlns:serif="http://www.serif.com/" style="fill-rule:evenodd;clip-rule:evenodd;stroke-miterlimit:1.41421;"><path d="M1157.96,237.394l-779.68,0l0,-202.482c0,-19.281 -15.632,-34.912 -34.909,-34.912c-19.276,0 -34.908,15.631 -34.908,34.912l0,202.482l-211.795,0c-11.573,0 -20.948,9.375 -20.948,20.942c0,11.573 9.375,20.952 20.948,20.952l211.795,0l0,612.115c0,19.276 15.632,34.908 34.908,34.908c19.277,0 34.909,-15.632 34.909,-34.908l0,-612.115l779.68,0c11.573,0 20.952,-9.379 20.952,-20.952c0,-11.568 -9.379,-20.942 -20.952,-20.942Z" style="fill:#fff;fill-rule:nonzero;"/><path d="M318.145,131.974c9.058,1.714 16.905,-2.94 24.016,-8.33c7.104,-5.396 10.292,-13.967 13.225,-17.88c1.01,-1.347 10.524,-2.689 22.891,-4.029l0,-66.822c0,-19.281 -15.632,-34.913 -34.909,-34.913c-19.276,0 -34.908,15.632 -34.908,34.913l0,89.714c3.741,7.347 2.159,5.925 9.685,7.347Zm-165.887,137.231c-2.688,-6.121 8.822,-13.479 6.617,-18.63c-1.428,-3.332 -1.092,-8.61 0.309,-13.181l-62.519,0c-11.573,0 -20.948,9.375 -20.948,20.942c0,11.573 9.375,20.952 20.948,20.952l64.748,0c-3.966,-2.093 -7.305,-5.891 -9.155,-10.083Zm217.851,310.468c-3.433,6.62 -20.082,3.46 -26.702,2.229c-6.613,-1.235 -5.889,5.146 -7.847,6.117c-1.973,0.979 -4.658,0.727 -6.199,1.702c-9.739,6.129 -13.078,8.493 -20.901,11.879l0,289.803c0,19.276 15.632,34.908 34.908,34.908c19.277,0 34.909,-15.632 34.909,-34.909l0,-331.064c-1.339,0.534 -2.616,1.177 -3.753,1.954c-9.31,6.369 -0.976,10.78 -4.415,17.381Zm787.844,-342.278l-478.687,-0.001c3.745,4.411 7.459,8.574 10.876,11.724c12.157,11.199 7.394,18.937 4.631,30.17l463.18,0c11.577,0 20.956,-9.379 20.956,-20.952c0,-11.567 -9.379,-20.941 -20.956,-20.941Zm-849.493,-112.768c-0.762,-1.498 -1.734,-3.321 -3.057,-5.638c-7.831,-13.726 -7.831,-21.813 -18.63,-16.419c-10.768,5.394 -23.27,12.751 -30.618,13.225c-7.367,0.499 -13.72,2.209 -23.293,-4.641c-9.541,-6.869 -16.409,-23.041 -30.373,-14.957c-13.968,8.087 -26.462,21.817 -31.852,26.719c-5.394,4.891 -0.979,6.617 2.206,17.633c3.184,11.033 -5.874,16.415 -8.826,21.813c-2.937,5.391 -10.783,15.687 -10.532,24.264c0.248,8.569 3.68,11.021 10.784,20.58c7.096,9.55 1.706,19.125 -1.962,23.784c-1.296,1.635 -2.356,3.919 -3.122,6.404l149.275,0l0,-112.767l0,0Zm370.806,112.767c-9.983,-11.728 -20.26,-25.264 -26.133,-26.508c-8.095,-1.713 -15.191,3.917 -15.191,3.917c0,0 12.258,-8.812 5.386,-21.809c-6.849,-12.978 -20.337,-27.438 -15.198,-40.177c5.161,-12.746 14.223,-9.813 13.747,-14.471c-0.503,-4.647 -27.46,-23.277 -33.101,-31.847c-5.626,-8.571 -12.722,-8.083 -15.93,-8.083c-3.177,0 1.961,-6.368 -3.417,-10.786c-5.386,-4.416 -15.67,-40.685 -15.67,-40.685c0,0 -40.465,34.547 -50.25,44.601c-9.801,10.049 -13.237,17.155 -28.18,16.901c-14.951,-0.248 -29.898,-6.852 -38.476,-12.738c-8.574,-5.873 -8.326,-5.63 -15.678,-1.71c-4.836,2.575 -39.141,5.156 -62.898,7.737l0,135.658l300.989,0l0,0Zm-300.989,322.945c9.681,-3.808 23.741,-1.463 27.618,3.908c4.407,6.133 -3.188,10.783 4.891,12.989c8.094,2.205 23.792,8.818 27.456,6.121c3.668,-2.689 26.706,-26.706 28.912,-30.626c2.213,-3.915 18.131,-9.053 18.131,-7.347c0,1.719 16.429,6.377 18.63,9.553c2.186,3.193 4.647,6.388 -2.701,6.616c-7.347,0.251 -5.157,9.801 1.958,11.767c0,0 7.599,3.423 12.51,0.24c4.89,-3.193 5.622,0.011 5.865,-7.837c0.252,-7.85 -3.915,-15.194 6.126,-11.027c10.055,4.171 -4.164,9.801 8.574,13.461c12.741,3.688 11.019,6.389 26.485,-2.433c15.422,-8.837 27.68,-15.195 27.68,-23.54c0,-8.32 -11.275,-32.351 14.2,-40.674c25.483,-8.33 40.194,-34.058 40.426,-39.452c0.248,-5.394 -9.286,-9.804 -6.852,-17.396c2.457,-7.595 2.209,-3.432 19.118,-8.582c16.901,-5.142 22.043,-15.426 30.617,-30.381c8.594,-14.947 29.662,-87.484 18.151,-97.283c-11.531,-9.801 -14.216,-16.413 -11.531,-28.181c0.078,-0.322 0.155,-0.629 0.232,-0.948l-316.496,0l0,281.051Zm-216.864,-281.05c1.826,0.966 3.776,1.6 5.792,1.676c6.369,0.244 23.026,2.467 30.873,7.847c7.847,5.405 13.964,3.194 20.584,18.376c6.624,15.201 8.574,4.173 7.096,25.248c-1.458,21.067 -15.918,50.489 -35.032,62.494c-19.114,12.01 -34.304,27.201 -41.652,36.03c-7.355,8.818 -12.494,13.222 -14.699,23.274c-2.206,10.048 0,19.845 -13.72,10.284c-13.736,-9.553 -21.862,-29.336 -21.862,-29.336c0,0 -7.371,-2.438 -12.261,4.918c-4.91,7.351 -2.457,24.523 -12.273,29.429c-9.809,4.906 -14.699,2.453 -22.082,9.82c-7.352,7.36 -9.805,22.059 -4.899,29.426c4.899,7.356 12.281,19.621 2.461,24.535c-9.828,4.903 -17.187,4.903 -17.187,17.171c0,12.254 7.359,17.172 0,29.43c-7.348,12.277 -17.156,17.176 -14.703,24.535c2.457,7.367 4.902,7.367 12.265,7.367c7.36,0 9.797,7.347 4.906,17.16c-4.906,9.816 -17.171,17.179 -22.078,26.98c-4.91,9.813 -4.91,26.976 -4.91,26.976c0,0 -4.91,7.367 -7.363,22.078c-2.453,14.734 2.453,24.539 4.91,34.351c2.453,9.813 -4.91,17.172 -2.457,24.524c2.457,7.351 0,7.351 12.273,-2.453c12.261,-9.781 -12.273,-19.625 12.261,-9.781c24.52,9.781 31.902,14.687 36.793,7.328c4.891,-7.328 22.082,-12.242 22.082,-12.242c0,0 2.453,-4.922 9.801,-14.735c7.37,-9.804 17.171,-9.804 26.992,-9.804c9.804,0 14.718,9.804 22.078,2.461c7.351,-7.383 105.471,-14.735 105.471,-14.735c0,0 4.899,2.453 12.262,-12.258c7.367,-14.734 7.367,-34.35 19.625,-44.163c12.258,-9.801 22.085,-17.172 12.258,-24.527c-9.797,-7.36 -19.625,-14.727 0,-22.078c5.896,-2.209 10.075,-3.846 13.441,-5.293l0,-322.313l-147.046,0Z" style="fill:url(#_Radial1);fill-rule:nonzero;"/><g><g><path d="M346.7,497.604c-4.137,-4.63 -14.139,-10.49 -25.773,-14.703c-11.585,-4.172 -3.738,1.211 1.706,3.454c7.46,3.041 11.658,6.291 18.909,12.97c7.58,6.983 -3.622,8.589 -8.784,6.685c-5.153,-1.907 -11.453,-3.618 -19.098,-9.359c-7.635,-5.739 -6.493,-9.538 -13.55,-17.188c-7.073,-7.634 -13.597,-8.423 -19.289,-9.158c-5.924,-0.766 -8.028,-2.495 -12.61,-5.726c-4.596,-3.25 -9.359,-6.509 -17.953,-9.565c-8.59,-3.046 -40.492,-10.115 -48.521,-11.651c0,0 -1.896,1.347 -2.089,2.5c-0.186,1.134 -0.797,3.703 1.726,7.054c1.137,1.528 8.791,2.375 12.215,2.878c6.682,0.948 13.941,1.9 28.261,4.767c14.328,2.848 27.502,7.828 26.168,12.401c-0.971,3.358 -3.823,6.875 -2.678,12.428c1.579,7.637 5.347,12.212 9.17,16.034c3.827,3.826 6.694,4.585 9.36,15.09c2.674,10.501 2.674,17.763 6.875,2.674c0.797,-2.883 3.49,-16.986 2.291,-24.253c-0.58,-3.444 -1.408,-7.27 -2.867,-9.742c-4.384,-7.445 -1.718,-6.118 4.585,-3.429c2.182,0.921 4.4,2.082 7.646,7.438c3.242,5.339 3.053,8.597 0.565,16.993c-2.48,8.404 4.388,13.569 8.984,17.191c4.574,3.629 6.299,4.782 8.776,10.32c2.631,5.857 5.126,12.4 5.734,10.686c0.952,-2.677 1.521,-4.581 2.852,-11.453c1.35,-6.883 0.197,-11.65 -0.562,-15.476c-0.77,-3.823 0.562,-5.723 2.098,-6.098c1.524,-0.387 -1.142,-1.722 16.421,2.476c17.578,4.201 4.396,-10.695 -0.568,-16.239Zm-62.829,2.294c-0.948,3.068 -3.03,-1.444 -3.858,-9.093c-0.673,-6.407 -3.598,-12.285 -3.598,-12.285c4.009,2.283 8.884,8.628 9.077,12.837c0.186,4.2 -1.339,7.636 -1.621,8.541Z" style="fill:#6ebe44;fill-rule:nonzero;"/><path d="M346.7,497.604c-4.137,-4.63 -14.139,-10.49 -25.773,-14.703c-11.585,-4.172 -3.738,1.211 1.706,3.454c7.46,3.041 11.658,6.291 18.909,12.97c7.58,6.983 -3.622,8.589 -8.784,6.685c-5.153,-1.907 -11.453,-3.618 -19.098,-9.359c-7.635,-5.739 -6.493,-9.538 -13.55,-17.188c-7.073,-7.634 -13.597,-8.423 -19.289,-9.158c-5.924,-0.766 -8.028,-2.495 -12.61,-5.726c-4.596,-3.25 -9.359,-6.509 -17.953,-9.565c-8.59,-3.046 -40.492,-10.115 -48.521,-11.651c0,0 -1.896,1.347 -2.089,2.5c-0.186,1.134 -0.797,3.703 1.726,7.054c1.137,1.528 8.791,2.375 12.215,2.878c6.682,0.948 13.941,1.9 28.261,4.767c14.328,2.848 27.502,7.828 26.168,12.401c-0.971,3.358 -3.823,6.875 -2.678,12.428c1.579,7.637 5.347,12.212 9.17,16.034c3.827,3.826 6.694,4.585 9.36,15.09c2.674,10.501 2.674,17.763 6.875,2.674c0.797,-2.883 3.49,-16.986 2.291,-24.253c-0.58,-3.444 -1.408,-7.27 -2.867,-9.742c-4.384,-7.445 -1.718,-6.118 4.585,-3.429c2.182,0.921 4.4,2.082 7.646,7.438c3.242,5.339 3.053,8.597 0.565,16.993c-2.48,8.404 4.388,13.569 8.984,17.191c4.574,3.629 6.299,4.782 8.776,10.32c2.631,5.857 5.126,12.4 5.734,10.686c0.952,-2.677 1.521,-4.581 2.852,-11.453c1.35,-6.883 0.197,-11.65 -0.562,-15.476c-0.77,-3.823 0.562,-5.723 2.098,-6.098c1.524,-0.387 -1.142,-1.722 16.421,2.476c17.578,4.201 4.396,-10.695 -0.568,-16.239Zm-62.829,2.294c-0.948,3.068 -3.03,-1.444 -3.858,-9.093c-0.673,-6.407 -3.598,-12.285 -3.598,-12.285c4.009,2.283 8.884,8.628 9.077,12.837c0.186,4.2 -1.339,7.636 -1.621,8.541Z" style="fill:none;stroke:#000;stroke-width:0.38px;"/></g><g><path d="M261.305,408.498c0,3.238 -2.902,5.873 -6.465,5.873c-3.583,0 -6.478,-2.635 -6.478,-5.873c0,-3.243 2.895,-5.877 6.478,-5.877c3.563,-0.001 6.465,2.635 6.465,5.877Z" style="fill:url(#_Linear2);fill-rule:nonzero;stroke:#000;stroke-width:0.38px;"/><path d="M378.06,318.712c-5.672,-14.765 -4.898,-29.863 6.694,-40.26c13.101,-11.745 19.896,-10.985 27.317,-15.726c5.703,-3.666 12.432,-8.279 18.572,-13.378c7.87,-6.53 14.541,-12.171 19.896,-19.588c8.474,-11.739 19.014,-24.366 9.058,-3.577c-3.192,6.686 -9.746,13.246 -14.266,17.98c-4.496,4.732 -10.23,10.532 -18.553,16.925c-5.324,4.096 -13.267,10.252 -19.009,14.552c-7.124,5.345 -12.475,17.082 0.897,11.887c19.161,-7.448 26.543,-15.848 34.003,-22.125c2.821,-2.38 6.187,-5.961 11.136,-11.15c4.968,-5.177 9.897,-8.723 4.008,0.308c-6.083,9.346 -13.063,17.955 -20.763,23.95c-4.194,3.272 -7.421,8.456 -0.897,8.791c7.112,0.362 13.349,6.609 1.478,7.062c-6.245,0.22 -14.808,1.683 -17.683,2.232c-6.268,1.157 -18.897,6.007 -20.948,17.653c-1.044,5.951 -0.735,11.742 -0.735,18.273c0,6.537 -2.228,7.748 -4.263,6.39c-2.021,-1.352 -12.963,-12.478 -15.942,-20.199Z" style="fill:url(#_Linear3);fill-rule:nonzero;stroke:#000;stroke-width:0.38px;"/><path d="M498.622,323.094c4.113,-1.168 7.169,-1.928 8.98,-2.156c3.563,-0.404 17.21,-1.944 17.605,7.014c0.22,4.904 0.29,5.765 -0.932,10.26c-0.484,1.791 -4.585,10.539 0.05,6.059c4.631,-4.504 3.087,-6.752 6.461,-7.438c3.363,-0.722 3.653,-2.825 1.819,-4.647c-1.819,-1.832 -2.063,-0.409 -2.391,-4.776c-0.801,-10.721 -6.04,-14.95 -17.06,-13.161c-6.542,1.074 -12.625,4.621 -13.96,5.568c-3.424,2.423 -2.542,3.841 -0.572,3.277Z" style="fill:url(#_Linear4);fill-rule:nonzero;stroke:#000;stroke-width:0.38px;"/><path d="M573.422,187.568c2.55,2.097 61.316,50.87 61.316,50.87c0,0 -33.214,-19.499 -38.553,-23.453c-5.347,-3.951 -9.298,-2.563 -9.99,1.857c-0.248,1.617 -8.188,23.088 -9.751,26.708c-5.811,13.469 -23.231,30.43 -33.449,38.788c-9.677,7.918 -32.881,21.914 -53.423,25.781c-16.019,3.01 -21.594,1.627 -30.192,0.697c-5.355,-0.572 0.693,-4.411 5.107,-8.122c4.411,-3.716 10.459,-10.228 16.031,-16.497c5.564,-6.278 19.037,-29.041 17.884,-51.327c-1.168,-22.305 -4.492,-33.599 -11.848,-46.926c-3.714,-6.737 -4.403,-10.678 7.894,4.651c4.43,5.505 10.911,15.563 14.409,27.401c1.462,5.006 5.107,23.467 2.778,32.985c-2.322,9.518 -3.715,14.403 -6.5,20.674c-2.79,6.264 -3.247,15.8 10.447,10.683c13.712,-5.115 28.346,-9.515 41.594,-26.025c9.217,-11.48 14.297,-27.953 15.555,-34.367c2.313,-11.844 -0.952,-26.258 -2.33,-29.492c-3.94,-9.285 3.021,-4.886 3.021,-4.886Z" style="fill:url(#_Linear5);fill-rule:nonzero;stroke:#000;stroke-width:0.38px;"/><g><path d="M656.421,249.567c0,-0.001 -8.837,1.957 -21.637,6.377c-12.784,4.433 -14.262,5.406 -34.444,16.74c-20.174,11.307 -28.539,25.089 -39.853,41.32c-11.321,16.259 -8.86,3.446 -7.874,-1.957c0.987,-5.418 10.59,-24.594 25.216,-36.911c5.599,-4.702 15.338,-10.213 19.517,-12.31c13.588,-6.795 17.775,-9.836 0,-3.481c-16.259,5.804 -27.952,13.452 -35.54,22.991c-7.297,9.167 -14.579,15.853 -18.046,34.635c-3.486,18.895 8.853,14.752 8.853,14.752c0,0 0.987,13.278 -3.447,14.762c-4.419,1.487 -6.857,-3.498 -6.884,3.449c-0.101,34.473 -8.319,62.053 -32.428,95.023c-24.106,32.97 -75.83,34.382 -108.796,29.963c-32.966,-4.438 -44.426,-12.741 -58.212,-20.124c-13.775,-7.394 -22.384,-14.397 -31.728,-21.78c-9.352,-7.37 -4.245,-9.607 -2.62,-15.105c1.718,-5.862 1.764,-12.788 -1.524,-19.041c-3.166,-6.059 0.456,-10.841 8.23,-6.582c6.736,3.688 11.062,7.344 28.775,16.7c17.706,9.344 43.192,12.227 51.059,11.748c7.877,-0.5 4.055,-1.923 1.594,-2.404c-2.465,-0.495 -6.896,-0.978 -12.788,-3.443c-5.916,-2.457 -0.5,-4.442 6.388,-3.459c6.883,1.002 38.882,-0.113 44.434,-1.273c20.113,-4.163 3.927,-4.012 -5.97,-3.718c-10.118,0.301 -28.501,-1.672 -31.422,-2.098c-10.277,-1.478 -17.733,-4.755 -20.569,-7.13c-10.698,-9.02 4.137,-11.02 9.534,-9.538c5.41,1.462 8.95,2.074 13.334,3.099c20.321,4.721 50.358,-0.089 59.222,-2.058c8.861,-1.985 13.404,-7.448 1.788,-4.33c-2.554,0.692 -16.204,2.194 -34.413,2.693c-18.208,0.483 -26.102,-3.485 -35.454,-9.387c-9.352,-5.912 -3.637,-14.461 0.298,-14.461c3.939,0 5.525,-0.101 9.839,1.644c7.573,3.072 8.346,0.976 7.735,-1.035c-0.89,-2.993 -1.335,-4.769 -1.335,-7.753c0,-2.51 1.49,-7.894 11.473,-3.266c7.142,3.302 9.835,4.912 9.835,-4.476c0,-1.937 1.269,-5.29 2.229,-7.609c1.788,-4.313 6.651,-6.396 12.064,-6.396c5.406,0 7.561,1.661 14.448,4.625c6.887,2.949 15.516,5.59 0.151,-4.782c-5.963,-4.018 -14.018,-6.334 -20.41,-5.346c-6.389,0.979 -11.469,8.76 -14,15.49c-0.99,2.616 -4.62,0.894 -4.62,0.894c0,0 -3.126,-1.05 -6.709,-1.797c-7.235,-1.501 -11.422,7.825 -11.906,10.279c-0.483,2.455 -4,3.086 -5.97,3.572c-1.958,0.493 -5.653,-0.137 -9.673,-4.014c-1.285,-1.224 -5.812,-6.7 -15.206,-18.921c-8.907,-11.593 -14.421,-25.925 -18.453,-37.112c-4.968,-13.748 0.84,-33.459 4.284,-40.36c3.447,-6.883 11.824,-14.198 24.121,-19.602c12.312,-5.427 18.402,-4.583 32.679,-9.015c14.27,-4.428 22.929,-10.194 30.324,-15.605c7.371,-5.407 15.241,-17.715 17.694,-22.139c2.476,-4.419 6.895,-22.631 5.912,-31.001c-0.994,-8.357 -3.219,-1.798 -7.282,7.216c-2.577,5.748 -5.773,10.032 -12.165,19.386c-6.392,9.349 -16.452,16.223 -32.912,25.016c-14.076,7.518 -35.381,8.564 -47.546,13.755c-10.184,4.312 -25.606,13.838 -32.014,31.546c-6.392,17.719 -5.862,29.529 -1.578,44.173c4.125,14.091 24.384,38.162 36.494,54.45c13.86,18.617 -11.251,27.861 -16.668,28.843c-5.409,0.979 -12.792,1.471 -22.635,0.495c-9.84,-0.994 -23.611,-7.39 -43.305,-13.295c-19.675,-5.908 -36.409,-1.826 -43.285,1.62c-6.899,3.454 -19.339,14.075 -21.583,27.172c-1.939,11.457 0.166,25.618 6.868,32.912c5.494,5.993 17.667,14.084 18.649,16.529c0.975,2.477 5.197,27.878 6.663,39.188l11.043,-40.654c0,0 4.411,0.193 11.31,-0.301c6.887,-0.496 16.831,-4.918 20.704,-9.999c1.602,-2.077 2.434,-3.474 2.434,-3.474c0,0 6.226,6.241 25.045,20.99c19.764,15.489 43.367,28.938 78.786,38.762c35.431,9.848 91.902,2.775 117.981,-23.312c26.086,-26.083 39.962,-79.25 39.962,-106.313c0,-27.077 2.259,-41.242 22.921,-65.839c20.666,-24.611 53.79,-27.086 63.405,-28.122c13.237,-1.379 31.825,-1.151 31.825,-1.151l-22.216,-19.53Zm-357.708,162.866c-1.965,19.663 -21.996,26.926 -39.524,26.926c-17.528,0 -31.186,-13.295 -29.948,-32.467c0.998,-15.26 15.035,-24.212 32.559,-24.473c31.98,-0.499 37.823,20.809 36.913,30.014Z" style="fill:url(#_Linear6);fill-rule:nonzero;"/><path d="M656.421,249.567c0,-0.001 -8.837,1.957 -21.637,6.377c-12.784,4.433 -14.262,5.406 -34.444,16.74c-20.174,11.307 -28.539,25.089 -39.853,41.32c-11.321,16.259 -8.86,3.446 -7.874,-1.957c0.987,-5.418 10.59,-24.594 25.216,-36.911c5.599,-4.702 15.338,-10.213 19.517,-12.31c13.588,-6.795 17.775,-9.836 0,-3.481c-16.259,5.804 -27.952,13.452 -35.54,22.991c-7.297,9.167 -14.579,15.853 -18.046,34.635c-3.486,18.895 8.853,14.752 8.853,14.752c0,0 0.987,13.278 -3.447,14.762c-4.419,1.487 -6.857,-3.498 -6.884,3.449c-0.101,34.473 -8.319,62.053 -32.428,95.023c-24.106,32.97 -75.83,34.382 -108.796,29.963c-32.966,-4.438 -44.426,-12.741 -58.212,-20.124c-13.775,-7.394 -22.384,-14.397 -31.728,-21.78c-9.352,-7.37 -4.245,-9.607 -2.62,-15.105c1.718,-5.862 1.764,-12.788 -1.524,-19.041c-3.166,-6.059 0.456,-10.841 8.23,-6.582c6.736,3.688 11.062,7.344 28.775,16.7c17.706,9.344 43.192,12.227 51.059,11.748c7.877,-0.5 4.055,-1.923 1.594,-2.404c-2.465,-0.495 -6.896,-0.978 -12.788,-3.443c-5.916,-2.457 -0.5,-4.442 6.388,-3.459c6.883,1.002 38.882,-0.113 44.434,-1.273c20.113,-4.163 3.927,-4.012 -5.97,-3.718c-10.118,0.301 -28.501,-1.672 -31.422,-2.098c-10.277,-1.478 -17.733,-4.755 -20.569,-7.13c-10.698,-9.02 4.137,-11.02 9.534,-9.538c5.41,1.462 8.95,2.074 13.334,3.099c20.321,4.721 50.358,-0.089 59.222,-2.058c8.861,-1.985 13.404,-7.448 1.788,-4.33c-2.554,0.692 -16.204,2.194 -34.413,2.693c-18.208,0.483 -26.102,-3.485 -35.454,-9.387c-9.352,-5.912 -3.637,-14.461 0.298,-14.461c3.939,0 5.525,-0.101 9.839,1.644c7.573,3.072 8.346,0.976 7.735,-1.035c-0.89,-2.993 -1.335,-4.769 -1.335,-7.753c0,-2.51 1.49,-7.894 11.473,-3.266c7.142,3.302 9.835,4.912 9.835,-4.476c0,-1.937 1.269,-5.29 2.229,-7.609c1.788,-4.313 6.651,-6.396 12.064,-6.396c5.406,0 7.561,1.661 14.448,4.625c6.887,2.949 15.516,5.59 0.151,-4.782c-5.963,-4.018 -14.018,-6.334 -20.41,-5.346c-6.389,0.979 -11.469,8.76 -14,15.49c-0.99,2.616 -4.62,0.894 -4.62,0.894c0,0 -3.126,-1.05 -6.709,-1.797c-7.235,-1.501 -11.422,7.825 -11.906,10.279c-0.483,2.455 -4,3.086 -5.97,3.572c-1.958,0.493 -5.653,-0.137 -9.673,-4.014c-1.285,-1.224 -5.812,-6.7 -15.206,-18.921c-8.907,-11.593 -14.421,-25.925 -18.453,-37.112c-4.968,-13.748 0.84,-33.459 4.284,-40.36c3.447,-6.883 11.824,-14.198 24.121,-19.602c12.312,-5.427 18.402,-4.583 32.679,-9.015c14.27,-4.428 22.929,-10.194 30.324,-15.605c7.371,-5.407 15.241,-17.715 17.694,-22.139c2.476,-4.419 6.895,-22.631 5.912,-31.001c-0.994,-8.357 -3.219,-1.798 -7.282,7.216c-2.577,5.748 -5.773,10.032 -12.165,19.386c-6.392,9.349 -16.452,16.223 -32.912,25.016c-14.076,7.518 -35.381,8.564 -47.546,13.755c-10.184,4.312 -25.606,13.838 -32.014,31.546c-6.392,17.719 -5.862,29.529 -1.578,44.173c4.125,14.091 24.384,38.162 36.494,54.45c13.86,18.617 -11.251,27.861 -16.668,28.843c-5.409,0.979 -12.792,1.471 -22.635,0.495c-9.84,-0.994 -23.611,-7.39 -43.305,-13.295c-19.675,-5.908 -36.409,-1.826 -43.285,1.62c-6.899,3.454 -19.339,14.075 -21.583,27.172c-1.939,11.457 0.166,25.618 6.868,32.912c5.494,5.993 17.667,14.084 18.649,16.529c0.975,2.477 5.197,27.878 6.663,39.188l11.043,-40.654c0,0 4.411,0.193 11.31,-0.301c6.887,-0.496 16.831,-4.918 20.704,-9.999c1.602,-2.077 2.434,-3.474 2.434,-3.474c0,0 6.226,6.241 25.045,20.99c19.764,15.489 43.367,28.938 78.786,38.762c35.431,9.848 91.902,2.775 117.981,-23.312c26.086,-26.083 39.962,-79.25 39.962,-106.313c0,-27.077 2.259,-41.242 22.921,-65.839c20.666,-24.611 53.79,-27.086 63.405,-28.122c13.237,-1.379 31.825,-1.151 31.825,-1.151l-22.216,-19.53Zm-357.708,162.866c-1.965,19.663 -21.996,26.926 -39.524,26.926c-17.528,0 -31.186,-13.295 -29.948,-32.467c0.998,-15.26 15.035,-24.212 32.559,-24.473c31.98,-0.499 37.823,20.809 36.913,30.014Z" style="fill:none;stroke:#000;stroke-width:0.38px;"/></g></g></g><defs><radialGradient id="_Radial1" cx="0" cy="0" r="1" gradientUnits="userSpaceOnUse" gradientTransform="matrix(282.107,0,0,282.107,422.736,243.009)"><stop offset="0" style="stop-color:#fff;stop-opacity:1"/><stop offset="1" style="stop-color:#df6926;stop-opacity:1"/></radialGradient><linearGradient id="_Linear2" x1="0" y1="0" x2="1" y2="0" gradientUnits="userSpaceOnUse" gradientTransform="matrix(-5e-05,-315.228,315.228,-5e-05,254.834,424.461)"><stop offset="0" style="stop-color:#fff;stop-opacity:1"/><stop offset="1" style="stop-color:#fff;stop-opacity:1"/></linearGradient><linearGradient id="_Linear3" x1="0" y1="0" x2="1" y2="0" gradientUnits="userSpaceOnUse" gradientTransform="matrix(1.93142e-14,-315.425,315.425,1.93142e-14,419.13,424.475)"><stop offset="0" style="stop-color:#fff;stop-opacity:1"/><stop offset="1" style="stop-color:#fff;stop-opacity:1"/></linearGradient><linearGradient id="_Linear4" x1="0" y1="0" x2="1" y2="0" gradientUnits="userSpaceOnUse" gradientTransform="matrix(1.932e-14,-315.519,315.519,1.932e-14,515.305,424.503)"><stop offset="0" style="stop-color:#fff;stop-opacity:1"/><stop offset="1" style="stop-color:#fff;stop-opacity:1"/></linearGradient><linearGradient id="_Linear5" x1="0" y1="0" x2="1" y2="0" gradientUnits="userSpaceOnUse" gradientTransform="matrix(1.93137e-14,-315.417,315.417,1.93137e-14,546.007,424.466)"><stop offset="0" style="stop-color:#fff;stop-opacity:1"/><stop offset="1" style="stop-color:#fff;stop-opacity:1"/></linearGradient><linearGradient id="_Linear6" x1="0" y1="0" x2="1" y2="0" gradientUnits="userSpaceOnUse" gradientTransform="matrix(1.70011e-14,-277.65,277.65,1.70011e-14,449.495,392.282)"><stop offset="0" style="stop-color:#fff;stop-opacity:1"/><stop offset="1" style="stop-color:#fff;stop-opacity:1"/></linearGradient></defs></svg>